G04*
G04 #@! TF.GenerationSoftware,Altium Limited,Altium Designer,22.7.1 (60)*
G04*
G04 Layer_Color=8388736*
%FSLAX25Y25*%
%MOIN*%
G70*
G04*
G04 #@! TF.SameCoordinates,F12143AB-E3BC-440E-ABAB-C55E8F116B8D*
G04*
G04*
G04 #@! TF.FilePolarity,Positive*
G04*
G01*
G75*
%ADD10C,0.00787*%
D10*
X317094Y295350D02*
Y301650D01*
X313906Y295350D02*
X317094D01*
X313906D02*
Y301650D01*
X317094D01*
X271118Y306295D02*
X295882D01*
Y280705D02*
Y306295D01*
X271118Y280705D02*
X295882D01*
X271118D02*
Y306295D01*
X251417Y366933D02*
Y371067D01*
X253583D01*
Y366933D02*
Y371067D01*
X251417Y366933D02*
X253583D01*
X203016Y351532D02*
Y355469D01*
X204984D01*
Y351532D02*
Y355469D01*
X203016Y351532D02*
X204984D01*
X217335Y326681D02*
X221665D01*
Y324319D02*
Y326681D01*
X217335Y324319D02*
X221665D01*
X217335D02*
Y326681D01*
X229835Y348681D02*
X234165D01*
Y346319D02*
Y348681D01*
X229835Y346319D02*
X234165D01*
X229835D02*
Y348681D01*
X188075Y363350D02*
Y369650D01*
X184925Y363350D02*
X188075D01*
X184925D02*
Y369650D01*
X188075D01*
X277933Y316417D02*
X282067D01*
X277933D02*
Y318583D01*
X282067D01*
Y316417D02*
Y318583D01*
X205252Y363783D02*
Y374217D01*
Y363783D02*
X216748D01*
Y374217D01*
X205252D02*
X216748D01*
M02*
