G04*
G04 #@! TF.GenerationSoftware,Altium Limited,Altium Designer,22.7.1 (60)*
G04*
G04 Layer_Color=255*
%FSLAX25Y25*%
%MOIN*%
G70*
G04*
G04 #@! TF.SameCoordinates,F12143AB-E3BC-440E-ABAB-C55E8F116B8D*
G04*
G04*
G04 #@! TF.FilePolarity,Positive*
G04*
G01*
G75*
%ADD23R,0.02047X0.02047*%
%ADD24R,0.05512X0.04331*%
%ADD55C,0.09000*%
%ADD56C,0.06496*%
%ADD57R,0.06496X0.06496*%
%ADD58C,0.05118*%
%ADD61R,0.31500X0.18000*%
%ADD62R,0.01083X0.00984*%
%ADD63R,0.00984X0.01083*%
%ADD64R,0.01772X0.01772*%
%ADD65R,0.03543X0.03150*%
%ADD66R,0.01300X0.02800*%
D23*
X290000Y374075D02*
D03*
Y370925D02*
D03*
D24*
X301000Y367594D02*
D03*
Y373500D02*
D03*
D55*
X154000Y236000D02*
D03*
Y386000D02*
D03*
D56*
X235500Y305000D02*
D03*
X225500D02*
D03*
X215500D02*
D03*
D57*
X245500D02*
D03*
D58*
X217500Y347602D02*
D03*
Y335398D02*
D03*
D61*
X193000Y262000D02*
D03*
X321000D02*
D03*
D62*
X276498Y369547D02*
D03*
Y371516D02*
D03*
Y373484D02*
D03*
Y375453D02*
D03*
X282502D02*
D03*
Y373484D02*
D03*
Y371516D02*
D03*
Y369547D02*
D03*
D63*
X278515Y375502D02*
D03*
X280484D02*
D03*
Y369498D02*
D03*
X278515D02*
D03*
D64*
X191575Y338000D02*
D03*
X188425D02*
D03*
X204350Y332000D02*
D03*
X207500D02*
D03*
D65*
X186563Y344760D02*
D03*
Y352240D02*
D03*
X194437Y348500D02*
D03*
D66*
X205500Y351250D02*
D03*
X203532Y345750D02*
D03*
X207469D02*
D03*
M02*
