M48
;Layer_Color=9474304
;FILE_FORMAT=2:4
INCH,TZ
;TYPE=PLATED
T1F00S00C0.0100
T2F00S00C0.0433
T3F00S00C0.0600
T4F00S00C0.1250
%
T01
X28450Y28450
X27950Y31000
X26750
Y32800
X26200
X24900Y31850
X28577Y31997
X28250Y33050
X27300Y34450
X28500Y35350
X28250Y36600
X27668Y36584
X27250Y36950
X27100Y37550
X24950Y37250
X23700Y37200
X22400Y36000
X22500Y35350
X23359Y34494
X20750Y33800
X20400Y35850
X17699Y36319
X18050Y34800
X20950Y31300
X30150Y35900
X31316Y33508
T02
X21550Y30500
X22550
X23550
X24550
T03
X15400Y23600
Y38600
T04
X31450Y28300
X18850Y31550
X32000Y37100
M30
