G04*
G04 #@! TF.GenerationSoftware,Altium Limited,Altium Designer,22.8.2 (66)*
G04*
G04 Layer_Color=32768*
%FSLAX25Y25*%
%MOIN*%
G70*
G04*
G04 #@! TF.SameCoordinates,DBEA32A3-26B1-43DE-8851-A205651FCFC1*
G04*
G04*
G04 #@! TF.FilePolarity,Positive*
G04*
G01*
G75*
%ADD72C,0.00600*%
%ADD74C,0.00394*%
%ADD76C,0.00197*%
G36*
X207150Y351350D02*
X209850D01*
Y345650D01*
X209119D01*
Y343350D01*
X201882D01*
Y345650D01*
X201150D01*
Y351350D01*
X203850D01*
Y353650D01*
X207150D01*
Y351350D01*
D02*
G37*
D72*
X201882Y343350D02*
X209119D01*
Y345650D01*
X201882Y343350D02*
Y345650D01*
X209119D02*
X209850D01*
X201150D02*
X201882D01*
X201150D02*
Y351350D01*
X203850D01*
Y353650D01*
X207150D01*
Y351350D02*
Y353650D01*
Y351350D02*
X209850D01*
Y345650D02*
Y351350D01*
D74*
X277531Y372500D02*
X281468D01*
X279500Y370531D02*
Y374468D01*
X182626Y340413D02*
Y354587D01*
X198374Y340413D02*
Y354587D01*
X182626D02*
X198374D01*
X182626Y340413D02*
X198374D01*
X188532Y347500D02*
X192469D01*
X190500Y345532D02*
Y349469D01*
X257083Y357500D02*
X260823D01*
X258953Y355630D02*
Y359370D01*
X257083Y349000D02*
X260823D01*
X258953Y347130D02*
Y350870D01*
X297850Y365035D02*
X304150D01*
X297850Y376059D02*
X304150D01*
Y365035D02*
Y376059D01*
X297850Y365035D02*
Y376059D01*
X301000Y368579D02*
Y372516D01*
X299032Y370547D02*
X302969D01*
X310500Y339728D02*
Y343272D01*
X308728Y341500D02*
X312272D01*
X310657Y326728D02*
Y330272D01*
X308886Y328500D02*
X312429D01*
X239350Y363988D02*
X245650D01*
X239350Y375012D02*
X245650D01*
X239350Y363988D02*
Y375012D01*
X245650Y363988D02*
Y375012D01*
X242500Y367532D02*
Y371469D01*
X240531Y369500D02*
X244468D01*
X232500Y367228D02*
Y370772D01*
X230728Y369000D02*
X234272D01*
X224500Y366917D02*
Y369083D01*
X223417Y368000D02*
X225583D01*
X188917Y338000D02*
X191083D01*
X190000Y336917D02*
Y339083D01*
X204843Y332000D02*
X207008D01*
X205925Y330917D02*
Y333083D01*
X196000Y366728D02*
Y370272D01*
X194228Y368500D02*
X197772D01*
X177000Y367917D02*
Y370083D01*
X175917Y369000D02*
X178083D01*
X274488Y321850D02*
Y328150D01*
X285512Y321850D02*
Y328150D01*
X274488D02*
X285512D01*
X274488Y321850D02*
X285512D01*
X278032Y325000D02*
X281969D01*
X280000Y323032D02*
Y326969D01*
X248276Y322835D02*
Y327165D01*
X257724Y322835D02*
Y327165D01*
X248276D02*
X257724D01*
X248276Y322835D02*
X257724D01*
X251130Y325000D02*
X254870D01*
X253000Y323130D02*
Y326870D01*
D76*
X275169Y368169D02*
Y376831D01*
X283831Y368169D02*
Y376831D01*
X275169Y368169D02*
X283831D01*
X275169Y376831D02*
X283831D01*
X135890Y391118D02*
X172110D01*
Y230882D02*
Y391118D01*
X135890Y230882D02*
Y391118D01*
Y230882D02*
X172110D01*
X267673Y363874D02*
X289327D01*
X267673Y333126D02*
X289327D01*
Y363874D01*
X267673Y333126D02*
Y363874D01*
X264858Y354547D02*
Y360453D01*
X253047Y354547D02*
Y360453D01*
Y354547D02*
X264858D01*
X253047Y360453D02*
X264858D01*
Y346047D02*
Y351953D01*
X253047Y346047D02*
Y351953D01*
Y346047D02*
X264858D01*
X253047Y351953D02*
X264858D01*
X209122Y309035D02*
X251878D01*
Y264685D02*
Y309035D01*
X209122Y264685D02*
X251878D01*
X209122D02*
Y309035D01*
X230500Y292126D02*
Y296063D01*
X228532Y294094D02*
X232469D01*
X303807Y345634D02*
X317193D01*
X303807Y337366D02*
X317193D01*
X303807D02*
Y345634D01*
X317193Y337366D02*
Y345634D01*
X303965Y332634D02*
X317350D01*
X303965Y324366D02*
X317350D01*
X303965D02*
Y332634D01*
X317350Y324366D02*
Y332634D01*
X229547Y374315D02*
X235453D01*
X229547Y363685D02*
X235453D01*
Y374315D01*
X229547Y363685D02*
Y374315D01*
X222925Y370953D02*
X226075D01*
X222925Y365047D02*
X226075D01*
Y370953D01*
X222925Y365047D02*
Y370953D01*
X192953Y336425D02*
Y339575D01*
X187047Y336425D02*
Y339575D01*
X192953D01*
X187047Y336425D02*
X192953D01*
X202972Y330425D02*
Y333575D01*
X208878Y330425D02*
Y333575D01*
X202972Y330425D02*
X208878D01*
X202972Y333575D02*
X208878D01*
X193835Y364169D02*
X198165D01*
X193835Y372831D02*
X198165D01*
X193835Y364169D02*
Y372831D01*
X198165Y364169D02*
Y372831D01*
X175032Y365260D02*
X178969D01*
X175032Y372740D02*
X178969D01*
X175032Y365260D02*
Y372740D01*
X178969Y365260D02*
Y372740D01*
X291776Y343071D02*
X301224D01*
X291776Y326929D02*
Y343071D01*
Y326929D02*
X301224D01*
Y343071D01*
M02*
