G04*
G04 #@! TF.GenerationSoftware,Altium Limited,Altium Designer,22.8.2 (66)*
G04*
G04 Layer_Physical_Order=2*
G04 Layer_Color=16711680*
%FSLAX25Y25*%
%MOIN*%
G70*
G04*
G04 #@! TF.SameCoordinates,DBEA32A3-26B1-43DE-8851-A205651FCFC1*
G04*
G04*
G04 #@! TF.FilePolarity,Positive*
G04*
G01*
G75*
%ADD15C,0.01000*%
%ADD25R,0.02047X0.02047*%
%ADD49R,0.05512X0.04331*%
%ADD57C,0.09000*%
%ADD58C,0.06496*%
%ADD59R,0.06496X0.06496*%
%ADD60C,0.02000*%
%ADD61C,0.13500*%
%ADD62R,0.31500X0.18000*%
%ADD63R,0.01083X0.00984*%
%ADD64R,0.00984X0.01083*%
%ADD65R,0.01772X0.01772*%
%ADD66R,0.03543X0.03150*%
%ADD67R,0.01300X0.02800*%
G36*
X337748Y272359D02*
X337650Y271900D01*
X337248Y271900D01*
X304350D01*
Y264927D01*
X288591D01*
X280927Y272591D01*
Y308740D01*
X281111Y308924D01*
X281400Y309622D01*
Y310378D01*
X281111Y311076D01*
X280576Y311611D01*
X279878Y311900D01*
X279122D01*
X278424Y311611D01*
X277889Y311076D01*
X277600Y310378D01*
Y309622D01*
X277889Y308924D01*
X278073Y308740D01*
Y272000D01*
X278073Y272000D01*
X278181Y271454D01*
X278491Y270991D01*
X286991Y262491D01*
X286991Y262491D01*
X287454Y262181D01*
X288000Y262073D01*
X288000Y262073D01*
X304350D01*
Y252100D01*
X337248D01*
X337650Y252100D01*
X337748Y251641D01*
Y230500D01*
X175748D01*
Y360997D01*
X176248Y361331D01*
X176589Y361190D01*
X176968D01*
X180667Y357491D01*
X180667Y357491D01*
X181130Y357181D01*
X181677Y357073D01*
X181677Y357073D01*
X202599D01*
X202867Y356804D01*
X203500Y356542D01*
Y358500D01*
Y360458D01*
X202867Y360195D01*
X202599Y359927D01*
X182268D01*
X178987Y363209D01*
Y363588D01*
X178682Y364323D01*
X178120Y364885D01*
X177487Y365148D01*
Y363190D01*
X176487D01*
Y365148D01*
X176248Y365049D01*
X175748Y365383D01*
Y391000D01*
X337748D01*
Y272359D01*
D02*
G37*
%LPC*%
G36*
X292024Y376098D02*
X290500D01*
Y374575D01*
X292024D01*
Y376098D01*
D02*
G37*
G36*
X304756Y376665D02*
X301500D01*
Y374000D01*
X304756D01*
Y376665D01*
D02*
G37*
G36*
X300500D02*
X297244D01*
Y374000D01*
X300500D01*
Y376665D01*
D02*
G37*
G36*
X250000Y374458D02*
Y373000D01*
X251458D01*
X251196Y373633D01*
X250633Y374196D01*
X250000Y374458D01*
D02*
G37*
G36*
X249000D02*
X248367Y374196D01*
X247804Y373633D01*
X247542Y373000D01*
X249000D01*
Y374458D01*
D02*
G37*
G36*
X237500Y373958D02*
Y372500D01*
X238958D01*
X238696Y373133D01*
X238133Y373695D01*
X237500Y373958D01*
D02*
G37*
G36*
X236500D02*
X235867Y373695D01*
X235304Y373133D01*
X235042Y372500D01*
X236500D01*
Y373958D01*
D02*
G37*
G36*
X271378Y377400D02*
X270622D01*
X269924Y377111D01*
X269389Y376576D01*
X269100Y375878D01*
Y375122D01*
X269389Y374424D01*
X269924Y373889D01*
X270622Y373600D01*
X271378D01*
X272076Y373889D01*
X272260Y374073D01*
X273749D01*
X273987Y374025D01*
X273987Y374025D01*
X274957D01*
Y373984D01*
X276498D01*
Y372984D01*
X274957D01*
Y371992D01*
X275057D01*
Y370967D01*
X273720D01*
X273576Y371111D01*
X272878Y371400D01*
X272122D01*
X271424Y371111D01*
X270889Y370576D01*
X270600Y369878D01*
Y369122D01*
X270889Y368424D01*
X271424Y367889D01*
X272122Y367600D01*
X272878D01*
X273576Y367889D01*
X273799Y368112D01*
X275903D01*
X276002Y367612D01*
X275608Y367449D01*
X275074Y366914D01*
X274784Y366216D01*
Y365460D01*
X275074Y364762D01*
X275608Y364227D01*
X276307Y363938D01*
X277062D01*
X277761Y364227D01*
X278295Y364762D01*
X278584Y365460D01*
Y365719D01*
X279320Y366455D01*
X279962Y366519D01*
X280600Y365881D01*
Y365622D01*
X280889Y364924D01*
X281424Y364389D01*
X282122Y364100D01*
X282878D01*
X283576Y364389D01*
X284111Y364924D01*
X284400Y365622D01*
Y366378D01*
X284111Y367076D01*
X283576Y367611D01*
X283555Y367620D01*
X283654Y368120D01*
X285317D01*
X285317Y368120D01*
X285863Y368228D01*
X286326Y368538D01*
X287286Y369498D01*
X288076D01*
Y369002D01*
X291924D01*
Y369498D01*
X293210D01*
X294457Y368250D01*
X294457Y368250D01*
X294920Y367941D01*
X295467Y367832D01*
X295467Y367832D01*
X297344D01*
Y364529D01*
X300073D01*
Y360260D01*
X299889Y360076D01*
X299600Y359378D01*
Y358622D01*
X299889Y357924D01*
X300424Y357389D01*
X301122Y357100D01*
X301878D01*
X302576Y357389D01*
X303111Y357924D01*
X303400Y358622D01*
Y359378D01*
X303111Y360076D01*
X302927Y360260D01*
Y364529D01*
X304656D01*
Y370335D01*
X304756D01*
Y373000D01*
X297244D01*
Y370687D01*
X296058D01*
X294811Y371935D01*
X294347Y372244D01*
X293801Y372353D01*
X293801Y372353D01*
X292024D01*
Y373575D01*
X290000D01*
Y374075D01*
X289500D01*
Y376098D01*
X287976D01*
Y375502D01*
X284043D01*
Y376945D01*
X283002D01*
Y375453D01*
X282002D01*
Y376945D01*
X281976D01*
Y377043D01*
X280984D01*
Y375502D01*
X279984D01*
Y377043D01*
X279015D01*
Y375502D01*
X278015D01*
Y377043D01*
X277023D01*
Y377043D01*
X276523Y376875D01*
X276498Y376880D01*
X274177D01*
X273940Y376927D01*
X273940Y376927D01*
X272260D01*
X272076Y377111D01*
X271378Y377400D01*
D02*
G37*
G36*
X251458Y372000D02*
X250000D01*
Y370542D01*
X250633Y370805D01*
X251196Y371367D01*
X251458Y372000D01*
D02*
G37*
G36*
X249000D02*
X247542D01*
X247804Y371367D01*
X248367Y370805D01*
X249000Y370542D01*
Y372000D01*
D02*
G37*
G36*
X238958Y371500D02*
X237500D01*
Y370042D01*
X238133Y370304D01*
X238696Y370867D01*
X238958Y371500D01*
D02*
G37*
G36*
X236500D02*
X235042D01*
X235304Y370867D01*
X235867Y370304D01*
X236500Y370042D01*
Y371500D01*
D02*
G37*
G36*
X320754Y378650D02*
X319247D01*
X317769Y378356D01*
X316376Y377779D01*
X315123Y376942D01*
X314058Y375877D01*
X313221Y374624D01*
X312644Y373231D01*
X312350Y371754D01*
Y370247D01*
X312644Y368769D01*
X313221Y367376D01*
X314058Y366123D01*
X315123Y365058D01*
X316376Y364221D01*
X317769Y363644D01*
X319247Y363350D01*
X320754D01*
X322231Y363644D01*
X323624Y364221D01*
X324877Y365058D01*
X325942Y366123D01*
X326779Y367376D01*
X327356Y368769D01*
X327650Y370247D01*
Y371754D01*
X327356Y373231D01*
X326779Y374624D01*
X325942Y375877D01*
X324877Y376942D01*
X323624Y377779D01*
X322231Y378356D01*
X320754Y378650D01*
D02*
G37*
G36*
X204500Y360458D02*
Y359000D01*
X205958D01*
X205696Y359633D01*
X205133Y360195D01*
X204500Y360458D01*
D02*
G37*
G36*
X205958Y358000D02*
X204500D01*
Y356542D01*
X205133Y356804D01*
X205696Y357367D01*
X205958Y358000D01*
D02*
G37*
G36*
X285378Y355400D02*
X284622D01*
X283924Y355111D01*
X283740Y354927D01*
X226260D01*
X226076Y355111D01*
X225378Y355400D01*
X224622D01*
X223924Y355111D01*
X223389Y354576D01*
X223100Y353878D01*
Y353122D01*
X223389Y352424D01*
X223924Y351889D01*
X224622Y351600D01*
X225378D01*
X226076Y351889D01*
X226260Y352073D01*
X283740D01*
X283924Y351889D01*
X284622Y351600D01*
X285378D01*
X286076Y351889D01*
X286611Y352424D01*
X286900Y353122D01*
Y353878D01*
X286611Y354576D01*
X286076Y355111D01*
X285378Y355400D01*
D02*
G37*
G36*
X189335Y354815D02*
X187063D01*
Y352740D01*
X189335D01*
Y354815D01*
D02*
G37*
G36*
X186063D02*
X183791D01*
Y352740D01*
X186063D01*
Y354815D01*
D02*
G37*
G36*
X224378Y361900D02*
X223622D01*
X222924Y361611D01*
X222389Y361076D01*
X222100Y360378D01*
Y360119D01*
X214659Y352677D01*
X207050D01*
Y353550D01*
X203950D01*
Y348950D01*
X205031D01*
X205594Y348388D01*
X205919Y348050D01*
X205919D01*
X205919Y348050D01*
Y345291D01*
X205487Y345135D01*
X205443Y345133D01*
X205082Y345484D01*
Y348050D01*
X204000D01*
X202541Y349509D01*
X202078Y349819D01*
X201532Y349927D01*
X201532Y349927D01*
X197109D01*
Y350975D01*
X191765D01*
Y346025D01*
X197109D01*
Y347073D01*
X200940D01*
X201982Y346031D01*
Y343450D01*
X202998D01*
Y333786D01*
X202565D01*
Y330214D01*
X209286D01*
Y331767D01*
X211509Y333991D01*
X211509Y333991D01*
X211819Y334454D01*
X211927Y335000D01*
X211927Y335000D01*
Y346890D01*
X211819Y347436D01*
X211509Y347899D01*
X211509Y347899D01*
X210048Y349361D01*
X210239Y349823D01*
X215250D01*
X215250Y349823D01*
X215796Y349931D01*
X216259Y350241D01*
X224119Y358100D01*
X224378D01*
X225076Y358389D01*
X225611Y358924D01*
X225900Y359622D01*
Y360378D01*
X225611Y361076D01*
X225076Y361611D01*
X224378Y361900D01*
D02*
G37*
G36*
X189335Y351740D02*
X187063D01*
Y349665D01*
X189335D01*
Y351740D01*
D02*
G37*
G36*
X186063D02*
X183791D01*
Y349665D01*
X186063D01*
Y351740D01*
D02*
G37*
G36*
X181000Y349958D02*
Y348500D01*
X182458D01*
X182195Y349133D01*
X181633Y349695D01*
X181000Y349958D01*
D02*
G37*
G36*
X180000D02*
X179367Y349695D01*
X178805Y349133D01*
X178542Y348500D01*
X180000D01*
Y349958D01*
D02*
G37*
G36*
X182458Y347500D02*
X181000D01*
Y346042D01*
X181633Y346304D01*
X182195Y346867D01*
X182458Y347500D01*
D02*
G37*
G36*
X180000D02*
X178542D01*
X178805Y346867D01*
X179367Y346304D01*
X180000Y346042D01*
Y347500D01*
D02*
G37*
G36*
X234090Y346896D02*
Y345439D01*
X235548D01*
X235285Y346072D01*
X234723Y346634D01*
X234090Y346896D01*
D02*
G37*
G36*
X233090D02*
X232457Y346634D01*
X231894Y346072D01*
X231632Y345439D01*
X233090D01*
Y346896D01*
D02*
G37*
G36*
X235548Y344439D02*
X234090D01*
Y342981D01*
X234723Y343243D01*
X235285Y343806D01*
X235548Y344439D01*
D02*
G37*
G36*
X233090D02*
X231632D01*
X231894Y343806D01*
X232457Y343243D01*
X233090Y342981D01*
Y344439D01*
D02*
G37*
G36*
X189235Y347235D02*
X183891D01*
Y342285D01*
X184707D01*
X185073Y342000D01*
X185181Y341454D01*
X185491Y340991D01*
X186340Y340141D01*
X186639Y339786D01*
X186639D01*
X186639Y339786D01*
Y336214D01*
X191342D01*
X207565Y319991D01*
X208029Y319681D01*
X208575Y319573D01*
X208575Y319573D01*
X228000D01*
X228000Y319573D01*
X228546Y319681D01*
X229009Y319991D01*
X252091Y343073D01*
X271740D01*
X271924Y342889D01*
X272622Y342600D01*
X273378D01*
X274076Y342889D01*
X274611Y343424D01*
X274900Y344122D01*
Y344878D01*
X274611Y345576D01*
X274076Y346111D01*
X273378Y346400D01*
X272622D01*
X271924Y346111D01*
X271740Y345927D01*
X251500D01*
X251500Y345927D01*
X250954Y345819D01*
X250491Y345509D01*
X250491Y345509D01*
X227409Y322427D01*
X209166D01*
X193361Y338233D01*
Y339786D01*
X189853D01*
Y340075D01*
X189744Y340621D01*
X189435Y341084D01*
X189435Y341084D01*
X188696Y341823D01*
X188887Y342285D01*
X189235D01*
Y347235D01*
D02*
G37*
G36*
X313657Y337036D02*
Y335579D01*
X315115D01*
X314853Y336212D01*
X314290Y336774D01*
X313657Y337036D01*
D02*
G37*
G36*
X312657D02*
X312024Y336774D01*
X311462Y336212D01*
X311200Y335579D01*
X312657D01*
Y337036D01*
D02*
G37*
G36*
X315115Y334579D02*
X313657D01*
Y333121D01*
X314290Y333383D01*
X314853Y333946D01*
X315115Y334579D01*
D02*
G37*
G36*
X312657D02*
X311200D01*
X311462Y333946D01*
X312024Y333383D01*
X312657Y333121D01*
Y334579D01*
D02*
G37*
G36*
X283000Y332458D02*
Y331000D01*
X284458D01*
X284195Y331633D01*
X283633Y332195D01*
X283000Y332458D01*
D02*
G37*
G36*
X282000D02*
X281367Y332195D01*
X280804Y331633D01*
X280542Y331000D01*
X282000D01*
Y332458D01*
D02*
G37*
G36*
X284458Y330000D02*
X283000D01*
Y328542D01*
X283633Y328804D01*
X284195Y329367D01*
X284458Y330000D01*
D02*
G37*
G36*
X282000D02*
X280542D01*
X280804Y329367D01*
X281367Y328804D01*
X282000Y328542D01*
Y330000D01*
D02*
G37*
G36*
X286269Y321931D02*
Y320474D01*
X287726D01*
X287464Y321107D01*
X286902Y321669D01*
X286269Y321931D01*
D02*
G37*
G36*
X285269D02*
X284636Y321669D01*
X284073Y321107D01*
X283811Y320474D01*
X285269D01*
Y321931D01*
D02*
G37*
G36*
X262378Y329900D02*
X261622D01*
X260924Y329611D01*
X260389Y329076D01*
X260100Y328378D01*
Y328119D01*
X251909Y319927D01*
X250260D01*
X250076Y320111D01*
X249378Y320400D01*
X248622D01*
X247924Y320111D01*
X247389Y319576D01*
X247100Y318878D01*
Y318122D01*
X247389Y317424D01*
X247924Y316889D01*
X248622Y316600D01*
X249378D01*
X250076Y316889D01*
X250260Y317073D01*
X252500D01*
X252500Y317073D01*
X253046Y317181D01*
X253509Y317491D01*
X262119Y326100D01*
X262378D01*
X263076Y326389D01*
X263611Y326924D01*
X263900Y327622D01*
Y328378D01*
X263611Y329076D01*
X263076Y329611D01*
X262378Y329900D01*
D02*
G37*
G36*
X287726Y319474D02*
X286269D01*
Y318016D01*
X286902Y318278D01*
X287464Y318841D01*
X287726Y319474D01*
D02*
G37*
G36*
X285269D02*
X283811D01*
X284073Y318841D01*
X284636Y318278D01*
X285269Y318016D01*
Y319474D01*
D02*
G37*
G36*
X210000Y314958D02*
Y313500D01*
X211458D01*
X211195Y314133D01*
X210633Y314696D01*
X210000Y314958D01*
D02*
G37*
G36*
X209000D02*
X208367Y314696D01*
X207804Y314133D01*
X207542Y313500D01*
X209000D01*
Y314958D01*
D02*
G37*
G36*
X211458Y312500D02*
X210000D01*
Y311042D01*
X210633Y311304D01*
X211195Y311867D01*
X211458Y312500D01*
D02*
G37*
G36*
X209000D02*
X207542D01*
X207804Y311867D01*
X208367Y311304D01*
X209000Y311042D01*
Y312500D01*
D02*
G37*
G36*
X267878Y329900D02*
X267122D01*
X266424Y329611D01*
X265889Y329076D01*
X265600Y328378D01*
Y327622D01*
X265889Y326924D01*
X266073Y326740D01*
Y311260D01*
X265889Y311076D01*
X265600Y310378D01*
Y309622D01*
X265889Y308924D01*
X266424Y308389D01*
X267122Y308100D01*
X267878D01*
X268576Y308389D01*
X269111Y308924D01*
X269400Y309622D01*
Y310378D01*
X269111Y311076D01*
X268927Y311260D01*
Y326740D01*
X269111Y326924D01*
X269400Y327622D01*
Y328378D01*
X269111Y329076D01*
X268576Y329611D01*
X267878Y329900D01*
D02*
G37*
G36*
X189253Y323150D02*
X187747D01*
X186269Y322856D01*
X184876Y322279D01*
X183623Y321442D01*
X182558Y320377D01*
X181721Y319124D01*
X181144Y317731D01*
X180850Y316253D01*
Y314746D01*
X181144Y313269D01*
X181721Y311876D01*
X182558Y310623D01*
X183623Y309558D01*
X184876Y308721D01*
X186269Y308144D01*
X187747Y307850D01*
X189253D01*
X190731Y308144D01*
X192124Y308721D01*
X193377Y309558D01*
X194442Y310623D01*
X195279Y311876D01*
X195856Y313269D01*
X196150Y314746D01*
Y316253D01*
X195856Y317731D01*
X195279Y319124D01*
X194442Y320377D01*
X193377Y321442D01*
X192124Y322279D01*
X190731Y322856D01*
X189253Y323150D01*
D02*
G37*
G36*
X216059Y309248D02*
X216000D01*
Y305500D01*
X219748D01*
Y305559D01*
X219459Y306640D01*
X218899Y307608D01*
X218108Y308399D01*
X217140Y308959D01*
X216059Y309248D01*
D02*
G37*
G36*
X215000D02*
X214941D01*
X213860Y308959D01*
X212892Y308399D01*
X212101Y307608D01*
X211542Y306640D01*
X211252Y305559D01*
Y305500D01*
X215000D01*
Y309248D01*
D02*
G37*
G36*
X249648Y309148D02*
X241352D01*
Y300852D01*
X249648D01*
Y309148D01*
D02*
G37*
G36*
X236046D02*
X234954D01*
X233899Y308865D01*
X232953Y308319D01*
X232181Y307547D01*
X231635Y306601D01*
X231352Y305546D01*
Y304454D01*
X231635Y303399D01*
X232181Y302453D01*
X232953Y301681D01*
X233899Y301135D01*
X234954Y300852D01*
X236046D01*
X237101Y301135D01*
X238047Y301681D01*
X238819Y302453D01*
X239365Y303399D01*
X239648Y304454D01*
Y305546D01*
X239365Y306601D01*
X238819Y307547D01*
X238047Y308319D01*
X237101Y308865D01*
X236046Y309148D01*
D02*
G37*
G36*
X226046D02*
X224954D01*
X223899Y308865D01*
X222953Y308319D01*
X222181Y307547D01*
X221635Y306601D01*
X221352Y305546D01*
Y304454D01*
X221635Y303399D01*
X222181Y302453D01*
X222953Y301681D01*
X223899Y301135D01*
X224954Y300852D01*
X226046D01*
X227101Y301135D01*
X228047Y301681D01*
X228819Y302453D01*
X229365Y303399D01*
X229648Y304454D01*
Y305546D01*
X229365Y306601D01*
X228819Y307547D01*
X228047Y308319D01*
X227101Y308865D01*
X226046Y309148D01*
D02*
G37*
G36*
X219748Y304500D02*
X216000D01*
Y300752D01*
X216059D01*
X217140Y301042D01*
X218108Y301601D01*
X218899Y302392D01*
X219459Y303360D01*
X219748Y304441D01*
Y304500D01*
D02*
G37*
G36*
X215000D02*
X211252D01*
Y304441D01*
X211542Y303360D01*
X212101Y302392D01*
X212892Y301601D01*
X213860Y301042D01*
X214941Y300752D01*
X215000D01*
Y304500D01*
D02*
G37*
G36*
X285000Y286458D02*
Y285000D01*
X286458D01*
X286195Y285633D01*
X285633Y286195D01*
X285000Y286458D01*
D02*
G37*
G36*
X284000D02*
X283367Y286195D01*
X282804Y285633D01*
X282542Y285000D01*
X284000D01*
Y286458D01*
D02*
G37*
G36*
X286458Y284000D02*
X285000D01*
Y282542D01*
X285633Y282804D01*
X286195Y283367D01*
X286458Y284000D01*
D02*
G37*
G36*
X284000D02*
X282542D01*
X282804Y283367D01*
X283367Y282804D01*
X284000Y282542D01*
Y284000D01*
D02*
G37*
G36*
X315253Y290650D02*
X313747D01*
X312269Y290356D01*
X310876Y289779D01*
X309623Y288942D01*
X308558Y287877D01*
X307721Y286624D01*
X307144Y285231D01*
X306850Y283753D01*
Y282246D01*
X307144Y280769D01*
X307721Y279376D01*
X308558Y278123D01*
X309623Y277058D01*
X310876Y276221D01*
X312269Y275644D01*
X313747Y275350D01*
X315253D01*
X316731Y275644D01*
X318124Y276221D01*
X319377Y277058D01*
X320442Y278123D01*
X321279Y279376D01*
X321856Y280769D01*
X322150Y282246D01*
Y283753D01*
X321856Y285231D01*
X321279Y286624D01*
X320442Y287877D01*
X319377Y288942D01*
X318124Y289779D01*
X316731Y290356D01*
X315253Y290650D01*
D02*
G37*
G36*
X209750Y272000D02*
X193500D01*
Y262500D01*
X209750D01*
Y272000D01*
D02*
G37*
G36*
X192500D02*
X176250D01*
Y262500D01*
X192500D01*
Y272000D01*
D02*
G37*
G36*
X209750Y261500D02*
X193500D01*
Y252000D01*
X209750D01*
Y261500D01*
D02*
G37*
G36*
X192500D02*
X176250D01*
Y252000D01*
X192500D01*
Y261500D01*
D02*
G37*
%LPD*%
D15*
X319500Y263500D02*
X321000Y262000D01*
X279500Y272000D02*
X288000Y263500D01*
X319500D01*
X279500Y272000D02*
Y310000D01*
X283126Y374075D02*
X290000D01*
X282536Y373484D02*
X283126Y374075D01*
X282502Y373484D02*
X282536D01*
X280501D02*
X282502D01*
X278499D02*
X280501D01*
X280484Y373501D02*
Y375502D01*
Y373501D02*
X280501Y373484D01*
X276498D02*
X278499D01*
X278515Y373501D02*
Y375502D01*
X278499Y373484D02*
X278515Y373501D01*
X282502Y373484D02*
Y375453D01*
X176987Y363190D02*
X181677Y358500D01*
X204000D01*
X225000Y353500D02*
X285000D01*
X215250Y351250D02*
X224000Y360000D01*
X205500Y351250D02*
X215250D01*
X203532Y345750D02*
Y346500D01*
X194437Y348500D02*
X201532D01*
X203532Y346500D01*
X251500Y344500D02*
X273000D01*
X228000Y321000D02*
X251500Y344500D01*
X208575Y321000D02*
X228000D01*
X191575Y338000D02*
X208575Y321000D01*
X186500Y342000D02*
Y344697D01*
X186563Y344760D01*
X188425Y338000D02*
Y340075D01*
X186500Y342000D02*
X188425Y340075D01*
X272539Y369539D02*
X276490D01*
X272500Y369500D02*
X272539Y369539D01*
X276490D02*
X276498Y369547D01*
X273987Y375453D02*
X276498D01*
X273940Y375500D02*
X273987Y375453D01*
X271000Y375500D02*
X273940D01*
X278507Y367661D02*
Y369490D01*
X276684Y365838D02*
X278507Y367661D01*
Y369490D02*
X278515Y369498D01*
X280484Y368016D02*
X282500Y366000D01*
X280484Y368016D02*
Y369498D01*
X267500Y310000D02*
Y328000D01*
X252500Y318500D02*
X262000Y328000D01*
X249000Y318500D02*
X252500D01*
X207469Y338531D02*
X207500Y338500D01*
X207469Y338531D02*
Y345750D01*
X203532Y345000D02*
X204425Y344106D01*
Y332075D02*
Y344106D01*
X204350Y332000D02*
X204425Y332075D01*
X203532Y345000D02*
Y345750D01*
X207500Y332000D02*
X210500Y335000D01*
X208454Y348936D02*
X210500Y346890D01*
Y335000D02*
Y346890D01*
X205500Y350500D02*
Y351250D01*
Y350500D02*
X207064Y348936D01*
X208454D01*
X301500Y359000D02*
Y367094D01*
X301000Y367594D02*
X301500Y367094D01*
X293801Y370925D02*
X295467Y369260D01*
X299335D01*
X290000Y370925D02*
X293801D01*
X299335Y369260D02*
X301000Y367594D01*
X282502Y369547D02*
X285317D01*
X286695Y370925D01*
X290000D01*
X282502Y370502D02*
Y371516D01*
X282500Y370500D02*
X282502Y370502D01*
X282500Y369549D02*
Y370500D01*
Y369549D02*
X282502Y369547D01*
X281461Y371539D02*
X281484Y371516D01*
X282502D01*
X277402Y371539D02*
X281461D01*
X277378Y371516D02*
X277402Y371539D01*
X276498Y371516D02*
X277378D01*
X134500Y227000D02*
X339500D01*
X134500Y393500D02*
X339500D01*
Y227000D02*
Y393500D01*
X134500Y227000D02*
Y393500D01*
D25*
X290000Y374075D02*
D03*
Y370925D02*
D03*
D49*
X301000Y367594D02*
D03*
Y373500D02*
D03*
D57*
X154000Y236000D02*
D03*
Y386000D02*
D03*
D58*
X235500Y305000D02*
D03*
X225500D02*
D03*
X215500D02*
D03*
D59*
X245500D02*
D03*
D60*
X209500Y313000D02*
D03*
X279500Y310000D02*
D03*
X180500Y348000D02*
D03*
X284500Y284500D02*
D03*
X204000Y358500D02*
D03*
X176987Y363190D02*
D03*
X233590Y344939D02*
D03*
X313157Y335079D02*
D03*
X282500Y330500D02*
D03*
X285769Y319974D02*
D03*
X249500Y372500D02*
D03*
X237000Y372000D02*
D03*
X225000Y353500D02*
D03*
X273000Y344500D02*
D03*
X285000Y353500D02*
D03*
X272500Y369500D02*
D03*
X271000Y375500D02*
D03*
X276684Y365838D02*
D03*
X282500Y366000D02*
D03*
X267500Y310000D02*
D03*
X249000Y318500D02*
D03*
X267500Y328000D02*
D03*
X262000D02*
D03*
X207500Y338000D02*
D03*
X224000Y360000D02*
D03*
X301500Y359000D02*
D03*
D61*
X314500Y283000D02*
D03*
X320000Y371000D02*
D03*
X188500Y315500D02*
D03*
D62*
X193000Y262000D02*
D03*
X321000D02*
D03*
X192950D02*
D03*
D63*
X276498Y369547D02*
D03*
Y371516D02*
D03*
Y373484D02*
D03*
Y375453D02*
D03*
X282502D02*
D03*
Y373484D02*
D03*
Y371516D02*
D03*
Y369547D02*
D03*
D64*
X278515Y375502D02*
D03*
X280484D02*
D03*
Y369498D02*
D03*
X278515D02*
D03*
D65*
X191575Y338000D02*
D03*
X188425D02*
D03*
X204350Y332000D02*
D03*
X207500D02*
D03*
D66*
X186563Y344760D02*
D03*
Y352240D02*
D03*
X194437Y348500D02*
D03*
D67*
X205500Y351250D02*
D03*
X203532Y345750D02*
D03*
X207469D02*
D03*
M02*
