G04*
G04 #@! TF.GenerationSoftware,Altium Limited,Altium Designer,22.8.2 (66)*
G04*
G04 Layer_Color=32768*
%FSLAX25Y25*%
%MOIN*%
G70*
G04*
G04 #@! TF.SameCoordinates,DBEA32A3-26B1-43DE-8851-A205651FCFC1*
G04*
G04*
G04 #@! TF.FilePolarity,Positive*
G04*
G01*
G75*
%ADD11C,0.00787*%
D11*
X319571Y290905D02*
Y306095D01*
X311429Y290905D02*
X319571D01*
X311429D02*
Y306095D01*
X319571D01*
X263402Y306689D02*
X303598D01*
Y280311D02*
Y306689D01*
X263402Y280311D02*
X303598D01*
X263402D02*
Y306689D01*
X250925Y365850D02*
Y372150D01*
X254075D01*
Y365850D02*
Y372150D01*
X250925Y365850D02*
X254075D01*
X202524Y350601D02*
Y356399D01*
X205476D01*
Y350601D02*
Y356399D01*
X202524Y350601D02*
X205476D01*
X200760Y318075D02*
X208240D01*
Y314925D02*
Y318075D01*
X200760Y314925D02*
X208240D01*
X200760D02*
Y318075D01*
X223260Y346575D02*
X230740D01*
Y343425D02*
Y346575D01*
X223260Y343425D02*
X230740D01*
X223260D02*
Y346575D01*
X189371Y360677D02*
Y372323D01*
X183629Y360677D02*
X189371D01*
X183629D02*
Y372323D01*
X189371D01*
X276850Y315925D02*
X283150D01*
X276850D02*
Y319075D01*
X283150D01*
Y315925D02*
Y319075D01*
X204110Y363390D02*
Y374610D01*
Y363390D02*
X217890D01*
Y374610D01*
X204110D02*
X217890D01*
M02*
