G04*
G04 #@! TF.GenerationSoftware,Altium Limited,Altium Designer,22.8.2 (66)*
G04*
G04 Layer_Physical_Order=1*
G04 Layer_Color=255*
%FSLAX25Y25*%
%MOIN*%
G70*
G04*
G04 #@! TF.SameCoordinates,DBEA32A3-26B1-43DE-8851-A205651FCFC1*
G04*
G04*
G04 #@! TF.FilePolarity,Positive*
G04*
G01*
G75*
%ADD15C,0.01000*%
%ADD21R,0.04206X0.04750*%
%ADD23R,0.06299X0.05492*%
%ADD24C,0.04961*%
%ADD25R,0.02047X0.02047*%
%ADD28R,0.01860X0.01843*%
%ADD29R,0.02362X0.01968*%
%ADD31R,0.03773X0.03963*%
%ADD33R,0.02047X0.02047*%
%ADD36R,0.03996X0.10000*%
%ADD43R,0.22047X0.08268*%
%ADD44R,0.03740X0.03347*%
%ADD45R,0.04331X0.02559*%
G04:AMPARAMS|DCode=46|XSize=61.81mil|YSize=16.14mil|CornerRadius=2.02mil|HoleSize=0mil|Usage=FLASHONLY|Rotation=90.000|XOffset=0mil|YOffset=0mil|HoleType=Round|Shape=RoundedRectangle|*
%AMROUNDEDRECTD46*
21,1,0.06181,0.01211,0,0,90.0*
21,1,0.05778,0.01614,0,0,90.0*
1,1,0.00404,0.00605,0.02889*
1,1,0.00404,0.00605,-0.02889*
1,1,0.00404,-0.00605,-0.02889*
1,1,0.00404,-0.00605,0.02889*
%
%ADD46ROUNDEDRECTD46*%
%ADD47R,0.03740X0.03740*%
%ADD48R,0.04134X0.04134*%
%ADD49R,0.05512X0.04331*%
%ADD50R,0.01772X0.01772*%
%ADD51R,0.03347X0.02953*%
%ADD52R,0.02441X0.02598*%
%ADD53R,0.04331X0.05512*%
%ADD54R,0.07480X0.04331*%
%ADD55R,0.02756X0.03543*%
%ADD56C,0.02105*%
%ADD57C,0.09000*%
%ADD58C,0.06496*%
%ADD59R,0.06496X0.06496*%
%ADD60C,0.02000*%
%ADD61C,0.13500*%
G36*
X296905Y296256D02*
X300459Y296256D01*
X300729D01*
X301260Y296150D01*
X301759Y295943D01*
X302209Y295643D01*
X302592Y295260D01*
X302892Y294811D01*
X303099Y294311D01*
X303205Y293780D01*
Y293510D01*
D01*
Y293490D01*
Y293220D01*
X303099Y292689D01*
X302892Y292189D01*
X302592Y291740D01*
X302209Y291357D01*
X301759Y291057D01*
X301260Y290850D01*
X300729Y290744D01*
X300459D01*
Y290744D01*
X296905D01*
Y296256D01*
D02*
G37*
D15*
X207347Y315154D02*
Y316016D01*
Y315154D02*
X209500Y313000D01*
X206665Y316500D02*
X206862D01*
X207347Y316016D01*
X202335Y316500D02*
Y327465D01*
X198799Y331000D02*
X202335Y327465D01*
X224086Y331000D02*
X229311D01*
X224835Y335476D02*
X229311Y331000D01*
X224835Y335476D02*
Y345000D01*
X229311Y331000D02*
X236201D01*
X223500Y331586D02*
Y333500D01*
Y331586D02*
X224086Y331000D01*
X209500Y347500D02*
X223500Y333500D01*
X195224Y347500D02*
X209500D01*
X211000Y332500D02*
Y341898D01*
X195224Y343760D02*
X209138D01*
X211000Y341898D01*
X199299Y331500D02*
X210000D01*
X198799Y331000D02*
X199299Y331500D01*
X210000D02*
X211000Y332500D01*
X285084Y364084D02*
X289500Y368500D01*
X285084Y359985D02*
Y364084D01*
X289500Y368500D02*
Y389000D01*
X284898Y359799D02*
X285084Y359985D01*
X284794Y337305D02*
Y341206D01*
X285379Y341791D01*
X288768D01*
X284794Y337305D02*
X284898Y337201D01*
X274531Y337070D02*
X274661Y337201D01*
X274531Y333431D02*
Y337070D01*
X276913Y333126D02*
Y336894D01*
X272100Y331000D02*
X274531Y333431D01*
X265000Y331000D02*
X272100D01*
X271787Y328000D02*
X276913Y333126D01*
X267500Y328000D02*
X271787D01*
X276913Y336894D02*
X277220Y337201D01*
X180500Y348000D02*
X180691Y347809D01*
X185467D02*
X185776Y347500D01*
X180691Y347809D02*
X185467D01*
X267096Y284500D02*
X284500D01*
X266945Y284652D02*
X267096Y284500D01*
X284500D02*
X284652Y284652D01*
X300055D01*
X299793Y284913D02*
X300055Y284652D01*
X299793Y284913D02*
Y293500D01*
X300865D01*
X302614Y295249D02*
X315500D01*
X300865Y293500D02*
X302614Y295249D01*
X204000Y355083D02*
Y358500D01*
X176987Y363190D02*
X177000Y363203D01*
Y367268D01*
X233561Y344939D02*
X233590D01*
X233500Y345000D02*
X233561Y344939D01*
X229165Y345000D02*
X233500D01*
X313157Y335079D02*
Y341500D01*
Y328658D02*
Y335079D01*
Y328658D02*
X313315Y328500D01*
X282500Y325453D02*
Y330500D01*
Y325453D02*
X282953Y325000D01*
X282339Y330661D02*
X282500Y330500D01*
X282339Y330661D02*
Y337201D01*
X282953Y324410D02*
X285577Y321785D01*
X282953Y324410D02*
Y325000D01*
X285577Y320165D02*
Y321785D01*
Y320165D02*
X285769Y319974D01*
X284049D02*
X285769D01*
X281575Y317500D02*
X284049Y319974D01*
X250766Y372309D02*
X252500Y370575D01*
X249691Y372309D02*
X250766D01*
X249500Y372500D02*
X249691Y372309D01*
X249453Y372453D02*
X249500Y372500D01*
X242500Y372453D02*
X249453D01*
X242047Y372000D02*
X242500Y372453D01*
X237000Y372000D02*
X242047D01*
X232500Y371657D02*
X236387D01*
X236729Y372000D01*
X237000D01*
X203662Y351578D02*
X204000Y351917D01*
X195563Y351578D02*
X203662D01*
X195224Y351240D02*
X195563Y351578D01*
X223146Y351917D02*
X224729Y353500D01*
X204000Y351917D02*
X223146D01*
X224729Y353500D02*
X225000D01*
X277220Y348720D02*
Y359799D01*
X273000Y344500D02*
X277220Y348720D01*
X279780Y332425D02*
Y337201D01*
Y350280D02*
X280600Y351100D01*
X279780Y337201D02*
Y350280D01*
X280600Y351100D02*
X290600D01*
X298500Y359000D01*
X285000Y353500D02*
Y354000D01*
X284898Y354102D02*
Y359799D01*
Y354102D02*
X285000Y354000D01*
X202335Y316500D02*
X202417Y316583D01*
X272500Y369000D02*
Y369500D01*
X272102Y359799D02*
Y368602D01*
X272500Y369000D01*
X269543Y373773D02*
X271000Y375229D01*
X269543Y359799D02*
Y373773D01*
X271000Y375229D02*
Y375500D01*
X263276Y350370D02*
X265874D01*
X261906Y349000D02*
X263276Y350370D01*
X271795Y359492D02*
X272102Y359799D01*
X271795Y356292D02*
Y359492D01*
X265874Y350370D02*
X271795Y356292D01*
X269236Y357500D02*
X269543Y357807D01*
Y359799D01*
X261906Y357500D02*
X269236D01*
X274661Y363815D02*
X276684Y365838D01*
X274661Y359799D02*
Y363815D01*
X282419Y359880D02*
Y365919D01*
X282500Y366000D01*
X282339Y359799D02*
X282419Y359880D01*
X306421Y330079D02*
X308000Y328500D01*
X296500Y330079D02*
X306421D01*
X287457Y331043D02*
X288421Y330079D01*
X296500D01*
X287457Y331043D02*
Y337201D01*
X288768Y341791D02*
X290638Y339921D01*
X296500D01*
X298079Y341500D01*
X307843D01*
X262000Y328000D02*
X265000Y331000D01*
X267000Y302404D02*
Y309229D01*
X267500Y309729D02*
Y310000D01*
X267000Y309229D02*
X267500Y309729D01*
X266945Y302348D02*
X267000Y302404D01*
X235500Y305000D02*
X249000Y318500D01*
X245500Y325000D02*
X250047D01*
X225500Y305000D02*
X245500Y325000D01*
X255953D02*
X277047D01*
X255953Y315453D02*
Y325000D01*
X245500Y305000D02*
X255953Y315453D01*
Y331894D02*
X256000Y331941D01*
X255953Y325000D02*
Y331894D01*
X256000Y349000D02*
Y357500D01*
Y331941D02*
Y349000D01*
X225500Y303513D02*
Y305000D01*
Y303513D02*
X227966Y301047D01*
Y299534D02*
Y301047D01*
Y299534D02*
X229000Y298500D01*
X251500D01*
X255348Y302348D01*
X266945D01*
X300652Y301751D02*
X315500D01*
X300055Y302348D02*
X300652Y301751D01*
X266945Y302348D02*
X300055D01*
X185776Y343760D02*
X186661D01*
X192421Y338000D01*
X207500D01*
X184110Y342980D02*
X184890Y343760D01*
X224500Y366425D02*
X224583Y366343D01*
X232500D01*
X224500Y363944D02*
Y366425D01*
X224000Y363444D02*
X224500Y363944D01*
X224000Y360000D02*
Y363444D01*
X298500Y359000D02*
X301500D01*
X277047Y325000D02*
Y329693D01*
X279780Y332425D01*
X232500Y366343D02*
X232705Y366547D01*
X242500D01*
X243378Y367425D02*
X252500D01*
X242500Y366547D02*
X243378Y367425D01*
X256000Y357500D02*
Y363925D01*
X252500Y367425D02*
X256000Y363925D01*
X278425Y317500D02*
Y323622D01*
X277047Y325000D02*
X278425Y323622D01*
Y317500D02*
X278949Y316976D01*
Y310551D02*
Y316976D01*
Y310551D02*
X279500Y310000D01*
X134500Y227000D02*
X339500D01*
X134500Y393500D02*
X339500D01*
Y227000D02*
Y393500D01*
X134500Y227000D02*
Y393500D01*
D21*
X315500Y301751D02*
D03*
Y295249D02*
D03*
D23*
X266945Y302348D02*
D03*
Y284652D02*
D03*
X300055D02*
D03*
Y302348D02*
D03*
D24*
X299793Y293500D02*
D03*
D25*
X252500Y367425D02*
D03*
Y370575D02*
D03*
D28*
X204000Y351917D02*
D03*
Y355083D02*
D03*
D29*
X202335Y316500D02*
D03*
X206665D02*
D03*
X224835Y345000D02*
D03*
X229165D02*
D03*
D31*
X186500Y369358D02*
D03*
Y363642D02*
D03*
D33*
X281575Y317500D02*
D03*
X278425D02*
D03*
D36*
X215498Y369000D02*
D03*
X206502D02*
D03*
D43*
X198799Y331000D02*
D03*
X236201D02*
D03*
D44*
X289500Y389000D02*
D03*
X232500Y371657D02*
D03*
Y366343D02*
D03*
D45*
X185776Y351240D02*
D03*
Y347500D02*
D03*
Y343760D02*
D03*
X195224D02*
D03*
Y347500D02*
D03*
Y351240D02*
D03*
D46*
X269543Y359799D02*
D03*
X272102D02*
D03*
X274661D02*
D03*
X277220D02*
D03*
X279780D02*
D03*
X282339D02*
D03*
X284898D02*
D03*
X287457D02*
D03*
Y337201D02*
D03*
X284898D02*
D03*
X282339D02*
D03*
X279780D02*
D03*
X277220D02*
D03*
X274661D02*
D03*
X272102D02*
D03*
X269543D02*
D03*
D47*
X261906Y357500D02*
D03*
X256000D02*
D03*
X261906Y349000D02*
D03*
X256000D02*
D03*
D48*
X307843Y341500D02*
D03*
X313157D02*
D03*
X308000Y328500D02*
D03*
X313315D02*
D03*
D49*
X242500Y366547D02*
D03*
Y372453D02*
D03*
D50*
X224500Y369575D02*
D03*
Y366425D02*
D03*
D51*
X196000Y366039D02*
D03*
Y370961D02*
D03*
D52*
X177000Y367268D02*
D03*
Y370732D02*
D03*
D53*
X277047Y325000D02*
D03*
X282953D02*
D03*
D54*
X296500Y339921D02*
D03*
Y330079D02*
D03*
D55*
X250047Y325000D02*
D03*
X255953D02*
D03*
D56*
X180625Y370519D02*
X181858Y369286D01*
Y365589D02*
X183090Y364356D01*
X181858Y365589D02*
Y369286D01*
X183090Y364356D02*
X185787D01*
X177000Y370688D02*
Y370811D01*
X185787Y364356D02*
X186500Y363642D01*
X177168Y370519D02*
X180625D01*
X185776Y351240D02*
X186661D01*
X196000Y360579D01*
Y366039D01*
X220653Y369000D02*
X221228Y369575D01*
X215498Y369000D02*
X220653D01*
X221228Y369575D02*
X224500D01*
X196000Y366039D02*
X205556D01*
X206502Y366985D01*
Y369000D01*
X154000Y386000D02*
X154500Y385500D01*
X162311D01*
X177000Y370811D01*
Y370688D02*
X177168Y370519D01*
X188008Y370961D02*
X196000D01*
X186500Y369453D02*
X188008Y370961D01*
X186500Y369358D02*
Y369453D01*
D57*
X154000Y236000D02*
D03*
Y386000D02*
D03*
D58*
X235500Y305000D02*
D03*
X225500D02*
D03*
X215500D02*
D03*
D59*
X245500D02*
D03*
D60*
X209500Y313000D02*
D03*
X279500Y310000D02*
D03*
X180500Y348000D02*
D03*
X284500Y284500D02*
D03*
X204000Y358500D02*
D03*
X176987Y363190D02*
D03*
X233590Y344939D02*
D03*
X313157Y335079D02*
D03*
X282500Y330500D02*
D03*
X285769Y319974D02*
D03*
X249500Y372500D02*
D03*
X237000Y372000D02*
D03*
X225000Y353500D02*
D03*
X273000Y344500D02*
D03*
X285000Y353500D02*
D03*
X272500Y369500D02*
D03*
X271000Y375500D02*
D03*
X276684Y365838D02*
D03*
X282500Y366000D02*
D03*
X267500Y310000D02*
D03*
X249000Y318500D02*
D03*
X267500Y328000D02*
D03*
X262000D02*
D03*
X207500Y338000D02*
D03*
X224000Y360000D02*
D03*
X301500Y359000D02*
D03*
D61*
X314500Y283000D02*
D03*
X320000Y371000D02*
D03*
X188500Y315500D02*
D03*
M02*
