G04*
G04 #@! TF.GenerationSoftware,Altium Limited,Altium Designer,22.8.2 (66)*
G04*
G04 Layer_Color=32896*
%FSLAX25Y25*%
%MOIN*%
G70*
G04*
G04 #@! TF.SameCoordinates,DBEA32A3-26B1-43DE-8851-A205651FCFC1*
G04*
G04*
G04 #@! TF.FilePolarity,Positive*
G04*
G01*
G75*
%ADD11C,0.00787*%
G36*
X211350Y355150D02*
X199650D01*
Y341850D01*
X211350D01*
Y355150D01*
D02*
G37*
G36*
X288810Y372493D02*
X288937Y372478D01*
X289050Y372460D01*
X289105Y372445D01*
X289152Y372434D01*
X289196Y372424D01*
X289236Y372409D01*
X289272Y372398D01*
X289301Y372391D01*
X289323Y372380D01*
X289341Y372376D01*
X289352Y372369D01*
X289356D01*
X289465Y372314D01*
X289563Y372252D01*
X289647Y372187D01*
X289680Y372154D01*
X289713Y372125D01*
X289742Y372096D01*
X289767Y372067D01*
X289789Y372041D01*
X289804Y372020D01*
X289818Y372005D01*
X289829Y371990D01*
X289833Y371983D01*
X289836Y371979D01*
X289865Y371929D01*
X289891Y371878D01*
X289931Y371768D01*
X289960Y371659D01*
X289978Y371554D01*
X289985Y371503D01*
X289993Y371459D01*
X289996Y371419D01*
Y371386D01*
X290000Y371357D01*
Y371317D01*
X289996Y371244D01*
X289989Y371175D01*
X289982Y371110D01*
X289967Y371048D01*
X289949Y370989D01*
X289931Y370935D01*
X289913Y370884D01*
X289891Y370837D01*
X289873Y370796D01*
X289854Y370757D01*
X289836Y370727D01*
X289818Y370698D01*
X289804Y370680D01*
X289796Y370662D01*
X289789Y370655D01*
X289785Y370651D01*
X289742Y370600D01*
X289698Y370556D01*
X289647Y370516D01*
X289596Y370476D01*
X289494Y370411D01*
X289392Y370360D01*
X289345Y370338D01*
X289301Y370320D01*
X289261Y370305D01*
X289228Y370294D01*
X289199Y370283D01*
X289177Y370276D01*
X289163Y370272D01*
X289159D01*
X289075Y370607D01*
X289134Y370622D01*
X289188Y370640D01*
X289239Y370658D01*
X289287Y370676D01*
X289330Y370698D01*
X289367Y370720D01*
X289403Y370746D01*
X289436Y370767D01*
X289465Y370786D01*
X289487Y370808D01*
X289509Y370826D01*
X289527Y370840D01*
X289538Y370855D01*
X289549Y370866D01*
X289552Y370869D01*
X289556Y370873D01*
X289585Y370909D01*
X289607Y370949D01*
X289647Y371029D01*
X289676Y371106D01*
X289694Y371182D01*
X289709Y371248D01*
X289713Y371273D01*
Y371299D01*
X289716Y371321D01*
Y371346D01*
X289713Y371430D01*
X289698Y371510D01*
X289680Y371583D01*
X289658Y371648D01*
X289636Y371699D01*
X289625Y371721D01*
X289618Y371739D01*
X289611Y371754D01*
X289603Y371765D01*
X289600Y371772D01*
Y371776D01*
X289549Y371845D01*
X289494Y371903D01*
X289432Y371954D01*
X289374Y371994D01*
X289323Y372027D01*
X289279Y372049D01*
X289261Y372056D01*
X289250Y372063D01*
X289243Y372067D01*
X289239D01*
X289145Y372096D01*
X289050Y372118D01*
X288955Y372136D01*
X288868Y372147D01*
X288828Y372151D01*
X288792Y372154D01*
X288759D01*
X288733Y372158D01*
X288712D01*
X288693D01*
X288682D01*
X288679D01*
X288584Y372154D01*
X288497Y372147D01*
X288417Y372132D01*
X288344Y372118D01*
X288282Y372107D01*
X288257Y372100D01*
X288235Y372092D01*
X288216Y372089D01*
X288206Y372085D01*
X288198Y372081D01*
X288195D01*
X288111Y372045D01*
X288034Y372005D01*
X287973Y371961D01*
X287918Y371914D01*
X287874Y371874D01*
X287845Y371841D01*
X287827Y371816D01*
X287820Y371812D01*
Y371808D01*
X287772Y371732D01*
X287736Y371648D01*
X287710Y371568D01*
X287696Y371492D01*
X287685Y371423D01*
X287681Y371393D01*
Y371368D01*
X287678Y371350D01*
Y371321D01*
X287681Y371230D01*
X287696Y371146D01*
X287718Y371077D01*
X287740Y371015D01*
X287765Y370968D01*
X287783Y370931D01*
X287798Y370909D01*
X287805Y370902D01*
X287860Y370844D01*
X287922Y370789D01*
X287987Y370746D01*
X288053Y370709D01*
X288111Y370680D01*
X288140Y370669D01*
X288162Y370662D01*
X288180Y370655D01*
X288195Y370647D01*
X288202Y370644D01*
X288206D01*
X288129Y370316D01*
X288064Y370338D01*
X288005Y370360D01*
X287951Y370389D01*
X287896Y370414D01*
X287849Y370443D01*
X287805Y370476D01*
X287761Y370505D01*
X287725Y370534D01*
X287696Y370564D01*
X287667Y370589D01*
X287641Y370615D01*
X287623Y370633D01*
X287605Y370651D01*
X287594Y370666D01*
X287590Y370673D01*
X287587Y370676D01*
X287554Y370727D01*
X287521Y370778D01*
X287496Y370829D01*
X287474Y370884D01*
X287441Y370993D01*
X287419Y371091D01*
X287408Y371139D01*
X287405Y371179D01*
X287401Y371219D01*
X287397Y371252D01*
X287394Y371277D01*
Y371313D01*
X287401Y371433D01*
X287419Y371550D01*
X287441Y371652D01*
X287456Y371699D01*
X287470Y371743D01*
X287485Y371783D01*
X287499Y371819D01*
X287510Y371849D01*
X287521Y371878D01*
X287532Y371896D01*
X287539Y371910D01*
X287543Y371921D01*
X287547Y371925D01*
X287609Y372023D01*
X287681Y372107D01*
X287754Y372180D01*
X287827Y372242D01*
X287893Y372289D01*
X287922Y372307D01*
X287947Y372322D01*
X287965Y372336D01*
X287980Y372343D01*
X287991Y372347D01*
X287994Y372351D01*
X288107Y372402D01*
X288224Y372438D01*
X288340Y372464D01*
X288446Y372482D01*
X288493Y372489D01*
X288540Y372493D01*
X288577Y372496D01*
X288613D01*
X288639Y372500D01*
X288661D01*
X288675D01*
X288679D01*
X288810Y372493D01*
D02*
G37*
G36*
X288336Y369697D02*
X288311Y369643D01*
X288286Y369588D01*
X288260Y369537D01*
X288238Y369493D01*
X288220Y369457D01*
X288206Y369435D01*
X288202Y369431D01*
Y369428D01*
X288162Y369362D01*
X288122Y369304D01*
X288085Y369253D01*
X288053Y369213D01*
X288027Y369177D01*
X288005Y369155D01*
X287991Y369137D01*
X287987Y369133D01*
X289956D01*
Y368824D01*
X287426D01*
Y369024D01*
X287488Y369060D01*
X287547Y369100D01*
X287605Y369148D01*
X287656Y369191D01*
X287700Y369235D01*
X287736Y369268D01*
X287747Y369282D01*
X287758Y369293D01*
X287761Y369297D01*
X287765Y369301D01*
X287827Y369377D01*
X287885Y369453D01*
X287936Y369526D01*
X287976Y369599D01*
X288013Y369661D01*
X288027Y369686D01*
X288038Y369708D01*
X288049Y369726D01*
X288053Y369741D01*
X288060Y369748D01*
Y369752D01*
X288358D01*
X288336Y369697D01*
D02*
G37*
G36*
X192957Y349012D02*
X192884Y348979D01*
X192808Y348946D01*
X192735Y348906D01*
X192669Y348866D01*
X192615Y348833D01*
X192589Y348819D01*
X192571Y348804D01*
X192553Y348793D01*
X192542Y348786D01*
X192535Y348779D01*
X192531D01*
X192597Y348706D01*
X192655Y348633D01*
X192706Y348560D01*
X192746Y348491D01*
X192775Y348433D01*
X192786Y348408D01*
X192797Y348386D01*
X192804Y348371D01*
X192811Y348357D01*
X192815Y348349D01*
Y348346D01*
X192848Y348251D01*
X192870Y348153D01*
X192888Y348058D01*
X192899Y347971D01*
X192902Y347934D01*
X192906Y347898D01*
Y347865D01*
X192910Y347836D01*
Y347814D01*
Y347800D01*
Y347789D01*
Y347785D01*
X192902Y347650D01*
X192888Y347523D01*
X192877Y347465D01*
X192862Y347410D01*
X192848Y347359D01*
X192837Y347312D01*
X192822Y347268D01*
X192808Y347228D01*
X192797Y347195D01*
X192782Y347166D01*
X192775Y347145D01*
X192768Y347130D01*
X192760Y347119D01*
Y347115D01*
X192702Y347010D01*
X192633Y346915D01*
X192560Y346835D01*
X192495Y346770D01*
X192433Y346719D01*
X192404Y346697D01*
X192382Y346679D01*
X192360Y346668D01*
X192345Y346657D01*
X192338Y346653D01*
X192335Y346649D01*
X192280Y346620D01*
X192225Y346595D01*
X192120Y346551D01*
X192011Y346522D01*
X191916Y346504D01*
X191872Y346497D01*
X191829Y346489D01*
X191796Y346486D01*
X191763D01*
X191738Y346482D01*
X191639D01*
X191577Y346489D01*
X191461Y346508D01*
X191355Y346533D01*
X191308Y346548D01*
X191261Y346562D01*
X191221Y346577D01*
X191184Y346591D01*
X191155Y346606D01*
X191130Y346617D01*
X191108Y346628D01*
X191093Y346635D01*
X191082Y346638D01*
X191079Y346642D01*
X190981Y346708D01*
X190897Y346784D01*
X190820Y346861D01*
X190762Y346933D01*
X190711Y347003D01*
X190693Y347032D01*
X190678Y347057D01*
X190664Y347079D01*
X190656Y347094D01*
X190653Y347104D01*
X190649Y347108D01*
X190598Y347225D01*
X190562Y347345D01*
X190536Y347458D01*
X190518Y347563D01*
X190511Y347610D01*
X190507Y347654D01*
X190504Y347694D01*
Y347727D01*
X190500Y347752D01*
Y347771D01*
Y347785D01*
Y347789D01*
X190507Y347923D01*
X190522Y348051D01*
X190536Y348113D01*
X190547Y348167D01*
X190562Y348218D01*
X190576Y348266D01*
X190587Y348309D01*
X190602Y348349D01*
X190617Y348382D01*
X190627Y348411D01*
X190635Y348433D01*
X190642Y348448D01*
X190649Y348459D01*
Y348462D01*
X190711Y348568D01*
X190780Y348659D01*
X190849Y348739D01*
X190919Y348804D01*
X190981Y348855D01*
X191006Y348877D01*
X191031Y348895D01*
X191050Y348906D01*
X191064Y348917D01*
X191071Y348921D01*
X191075Y348924D01*
X191130Y348954D01*
X191181Y348979D01*
X191290Y349019D01*
X191395Y349048D01*
X191490Y349066D01*
X191534Y349074D01*
X191574Y349081D01*
X191610Y349085D01*
X191639D01*
X191665Y349088D01*
X191698D01*
X191759Y349085D01*
X191821Y349081D01*
X191938Y349063D01*
X192043Y349037D01*
X192091Y349023D01*
X192134Y349008D01*
X192174Y348994D01*
X192211Y348983D01*
X192240Y348968D01*
X192269Y348957D01*
X192287Y348946D01*
X192305Y348939D01*
X192313Y348932D01*
X192316D01*
X192418Y349005D01*
X192517Y349070D01*
X192608Y349121D01*
X192688Y349165D01*
X192724Y349183D01*
X192757Y349197D01*
X192786Y349212D01*
X192811Y349223D01*
X192833Y349230D01*
X192848Y349237D01*
X192855Y349241D01*
X192859D01*
X192957Y349012D01*
D02*
G37*
G36*
X194857Y348746D02*
X193616D01*
X193659Y348684D01*
X193681Y348659D01*
X193700Y348633D01*
X193718Y348611D01*
X193732Y348597D01*
X193743Y348586D01*
X193747Y348582D01*
X193765Y348564D01*
X193787Y348546D01*
X193838Y348499D01*
X193896Y348444D01*
X193958Y348389D01*
X194016Y348342D01*
X194042Y348320D01*
X194064Y348298D01*
X194082Y348284D01*
X194096Y348273D01*
X194104Y348266D01*
X194107Y348262D01*
X194166Y348211D01*
X194224Y348164D01*
X194275Y348116D01*
X194322Y348076D01*
X194366Y348036D01*
X194402Y348000D01*
X194439Y347967D01*
X194468Y347938D01*
X194497Y347909D01*
X194519Y347887D01*
X194537Y347869D01*
X194555Y347851D01*
X194573Y347829D01*
X194580Y347821D01*
X194631Y347760D01*
X194675Y347705D01*
X194711Y347650D01*
X194741Y347607D01*
X194762Y347567D01*
X194777Y347538D01*
X194784Y347519D01*
X194788Y347512D01*
X194810Y347458D01*
X194824Y347403D01*
X194839Y347352D01*
X194846Y347308D01*
X194850Y347268D01*
X194853Y347239D01*
Y347221D01*
Y347214D01*
X194850Y347159D01*
X194843Y347108D01*
X194835Y347057D01*
X194821Y347013D01*
X194784Y346926D01*
X194748Y346857D01*
X194726Y346824D01*
X194708Y346799D01*
X194690Y346773D01*
X194671Y346755D01*
X194657Y346740D01*
X194650Y346726D01*
X194642Y346722D01*
X194639Y346719D01*
X194599Y346682D01*
X194555Y346649D01*
X194508Y346624D01*
X194460Y346602D01*
X194366Y346566D01*
X194271Y346540D01*
X194231Y346533D01*
X194191Y346526D01*
X194155Y346522D01*
X194125Y346518D01*
X194100Y346515D01*
X194064D01*
X193998Y346518D01*
X193936Y346522D01*
X193878Y346533D01*
X193823Y346544D01*
X193772Y346558D01*
X193725Y346573D01*
X193681Y346591D01*
X193641Y346609D01*
X193605Y346628D01*
X193576Y346646D01*
X193550Y346660D01*
X193528Y346675D01*
X193510Y346686D01*
X193499Y346697D01*
X193492Y346700D01*
X193488Y346704D01*
X193452Y346740D01*
X193419Y346780D01*
X193386Y346824D01*
X193361Y346868D01*
X193317Y346955D01*
X193288Y347043D01*
X193277Y347083D01*
X193266Y347123D01*
X193259Y347155D01*
X193252Y347184D01*
X193248Y347210D01*
Y347228D01*
X193245Y347239D01*
Y347243D01*
X193561Y347275D01*
X193569Y347192D01*
X193583Y347119D01*
X193605Y347054D01*
X193630Y347003D01*
X193652Y346959D01*
X193674Y346930D01*
X193689Y346912D01*
X193696Y346904D01*
X193751Y346861D01*
X193809Y346828D01*
X193871Y346802D01*
X193925Y346788D01*
X193976Y346777D01*
X194020Y346773D01*
X194034Y346770D01*
X194056D01*
X194133Y346773D01*
X194202Y346788D01*
X194260Y346810D01*
X194311Y346831D01*
X194351Y346857D01*
X194377Y346875D01*
X194395Y346890D01*
X194402Y346897D01*
X194446Y346948D01*
X194478Y346999D01*
X194504Y347050D01*
X194519Y347101D01*
X194529Y347141D01*
X194533Y347177D01*
X194537Y347199D01*
Y347203D01*
Y347206D01*
X194529Y347272D01*
X194515Y347341D01*
X194489Y347403D01*
X194464Y347461D01*
X194435Y347509D01*
X194409Y347549D01*
X194402Y347563D01*
X194395Y347574D01*
X194387Y347578D01*
Y347581D01*
X194358Y347621D01*
X194322Y347661D01*
X194282Y347705D01*
X194238Y347749D01*
X194147Y347836D01*
X194056Y347923D01*
X194009Y347964D01*
X193969Y348000D01*
X193929Y348033D01*
X193896Y348062D01*
X193871Y348084D01*
X193849Y348102D01*
X193834Y348113D01*
X193831Y348116D01*
X193740Y348193D01*
X193656Y348266D01*
X193587Y348331D01*
X193532Y348386D01*
X193485Y348433D01*
X193452Y348466D01*
X193434Y348488D01*
X193427Y348491D01*
Y348495D01*
X193376Y348557D01*
X193336Y348615D01*
X193299Y348673D01*
X193270Y348724D01*
X193248Y348768D01*
X193234Y348801D01*
X193226Y348822D01*
X193223Y348826D01*
Y348830D01*
X193208Y348870D01*
X193201Y348906D01*
X193194Y348943D01*
X193190Y348975D01*
X193186Y349005D01*
Y349026D01*
Y349041D01*
Y349045D01*
X194857D01*
Y348746D01*
D02*
G37*
%LPC*%
G36*
X191738Y348804D02*
X191705D01*
X191636Y348801D01*
X191570Y348793D01*
X191508Y348779D01*
X191446Y348764D01*
X191392Y348742D01*
X191341Y348721D01*
X191294Y348699D01*
X191253Y348673D01*
X191213Y348648D01*
X191181Y348626D01*
X191152Y348604D01*
X191126Y348582D01*
X191108Y348568D01*
X191093Y348553D01*
X191086Y348546D01*
X191082Y348542D01*
X191039Y348491D01*
X191002Y348433D01*
X190970Y348375D01*
X190944Y348313D01*
X190919Y348251D01*
X190900Y348189D01*
X190871Y348065D01*
X190864Y348011D01*
X190857Y347956D01*
X190849Y347909D01*
X190846Y347869D01*
X190842Y347836D01*
Y347811D01*
Y347796D01*
Y347789D01*
X190846Y347698D01*
X190853Y347610D01*
X190864Y347530D01*
X190882Y347458D01*
X190900Y347388D01*
X190919Y347326D01*
X190940Y347268D01*
X190966Y347217D01*
X190988Y347174D01*
X191010Y347134D01*
X191028Y347101D01*
X191050Y347075D01*
X191064Y347054D01*
X191075Y347039D01*
X191082Y347032D01*
X191086Y347028D01*
X191133Y346981D01*
X191184Y346944D01*
X191235Y346908D01*
X191286Y346879D01*
X191341Y346853D01*
X191392Y346831D01*
X191439Y346817D01*
X191490Y346802D01*
X191534Y346791D01*
X191574Y346784D01*
X191610Y346777D01*
X191643Y346773D01*
X191668Y346770D01*
X191705D01*
X191796Y346773D01*
X191883Y346788D01*
X191960Y346810D01*
X192025Y346831D01*
X192080Y346857D01*
X192102Y346868D01*
X192120Y346875D01*
X192138Y346886D01*
X192149Y346890D01*
X192153Y346897D01*
X192156D01*
X192225Y346948D01*
X192287Y347006D01*
X192342Y347064D01*
X192385Y347123D01*
X192418Y347174D01*
X192444Y347217D01*
X192451Y347232D01*
X192458Y347243D01*
X192462Y347250D01*
Y347254D01*
X192498Y347341D01*
X192524Y347432D01*
X192542Y347523D01*
X192553Y347607D01*
X192560Y347643D01*
X192564Y347680D01*
Y347709D01*
X192568Y347738D01*
Y347760D01*
Y347774D01*
Y347785D01*
Y347789D01*
X192564Y347887D01*
X192557Y347978D01*
X192542Y348062D01*
X192520Y348142D01*
X192498Y348211D01*
X192473Y348276D01*
X192447Y348338D01*
X192422Y348393D01*
X192393Y348440D01*
X192367Y348480D01*
X192342Y348513D01*
X192320Y348542D01*
X192302Y348564D01*
X192287Y348582D01*
X192276Y348590D01*
X192273Y348593D01*
X192196Y348535D01*
X192120Y348488D01*
X192040Y348448D01*
X191963Y348411D01*
X191898Y348386D01*
X191869Y348375D01*
X191843Y348368D01*
X191825Y348360D01*
X191810Y348357D01*
X191799Y348353D01*
X191796D01*
X191712Y348593D01*
X191778Y348611D01*
X191840Y348633D01*
X191894Y348659D01*
X191945Y348681D01*
X191985Y348702D01*
X192018Y348721D01*
X192036Y348735D01*
X192043Y348739D01*
X191985Y348761D01*
X191923Y348775D01*
X191869Y348790D01*
X191814Y348797D01*
X191770Y348801D01*
X191738Y348804D01*
D02*
G37*
%LPD*%
D11*
X288425Y369350D02*
Y375650D01*
Y369350D02*
X291575D01*
Y375650D01*
X288425D02*
X291575D01*
X184398Y342201D02*
X196602D01*
Y354799D01*
X184398D02*
X196602D01*
X184398Y342201D02*
Y354799D01*
M02*
