G04*
G04 #@! TF.GenerationSoftware,Altium Limited,Altium Designer,22.8.2 (66)*
G04*
G04 Layer_Color=16711935*
%FSLAX25Y25*%
%MOIN*%
G70*
G04*
G04 #@! TF.SameCoordinates,DBEA32A3-26B1-43DE-8851-A205651FCFC1*
G04*
G04*
G04 #@! TF.FilePolarity,Positive*
G04*
G01*
G75*
%ADD11C,0.00787*%
%ADD13C,0.01181*%
%ADD14C,0.00500*%
%ADD73C,0.00000*%
%ADD74C,0.00394*%
%ADD75C,0.00100*%
D11*
X269937Y332004D02*
X269150D01*
X269937D01*
X195059Y340449D02*
X239941D01*
Y321551D02*
Y340449D01*
X195059Y321551D02*
X239941D01*
X195059D02*
Y340449D01*
D13*
X297057Y345630D02*
X296222Y346112D01*
Y345148D01*
X297057Y345630D01*
D14*
X268657Y357161D02*
X288343D01*
X268657Y339839D02*
X288343D01*
Y357161D01*
X268657Y339839D02*
Y357161D01*
X293547Y341299D02*
X299453D01*
X293547Y328701D02*
Y341299D01*
Y328701D02*
X299453D01*
Y341299D01*
D73*
X208350Y347650D02*
X207600Y348083D01*
Y347217D01*
X208350Y347650D01*
D74*
X275563Y368563D02*
X283437D01*
X275563D02*
Y376437D01*
X283437Y368563D02*
Y376437D01*
X275563D02*
X283437D01*
X136500Y386000D02*
X171500D01*
X136500Y236000D02*
X171500D01*
Y386000D01*
X136500Y236000D02*
Y386000D01*
X186957Y341398D02*
Y353602D01*
X194043Y341398D02*
Y353602D01*
X186957D02*
X194043D01*
X186957Y341398D02*
X194043D01*
X262398Y355630D02*
Y359370D01*
X255508Y355630D02*
Y359370D01*
Y355630D02*
X262398D01*
X255508Y359370D02*
X262398D01*
Y347130D02*
Y350870D01*
X255508Y347130D02*
Y350870D01*
Y347130D02*
X262398D01*
X255508Y350870D02*
X262398D01*
X298146Y366217D02*
X303854D01*
X298146Y374878D02*
X303854D01*
Y366217D02*
Y374878D01*
X298146Y366217D02*
Y374878D01*
X224240Y266260D02*
Y289094D01*
X226760Y266260D02*
Y289094D01*
X224240Y266260D02*
X225500Y265472D01*
X226760Y266260D01*
X210500Y299094D02*
X250500D01*
Y289094D02*
Y299094D01*
X210500Y289094D02*
X250500D01*
X210500D02*
Y299094D01*
X235500Y265472D02*
X236760Y266260D01*
X234240D02*
X235500Y265472D01*
X236760Y266260D02*
Y289094D01*
X234240Y266260D02*
Y289094D01*
X244240Y266260D02*
Y289094D01*
X246760Y266260D02*
Y289094D01*
X244240Y266260D02*
X245500Y265472D01*
X246760Y266260D01*
X215500Y265472D02*
X216760Y266260D01*
X214240D02*
X215500Y265472D01*
X216760Y266260D02*
Y289094D01*
X214240Y266260D02*
Y289094D01*
X307154Y343272D02*
X313846D01*
X307154Y339728D02*
X313846D01*
X307154D02*
Y343272D01*
X313846Y339728D02*
Y343272D01*
X307311Y330272D02*
X314004D01*
X307311Y326728D02*
X314004D01*
X307311D02*
Y330272D01*
X314004Y326728D02*
Y330272D01*
X239646Y365169D02*
X245354D01*
X239646Y373831D02*
X245354D01*
X239646Y365169D02*
Y373831D01*
X245354Y365169D02*
Y373831D01*
X230728Y372346D02*
X234272D01*
X230728Y365654D02*
X234272D01*
Y372346D01*
X230728Y365654D02*
Y372346D01*
X223417Y370067D02*
X225583D01*
X223417Y365933D02*
X225583D01*
Y370067D01*
X223417Y365933D02*
Y370067D01*
X192067Y336917D02*
Y339083D01*
X187933Y336917D02*
Y339083D01*
X192067D01*
X187933Y336917D02*
X192067D01*
X203858Y330917D02*
Y333083D01*
X207992Y330917D02*
Y333083D01*
X203858Y330917D02*
X207992D01*
X203858Y333083D02*
X207992D01*
X194228Y365154D02*
X197772D01*
X194228Y371846D02*
X197772D01*
X194228Y365154D02*
Y371846D01*
X197772Y365154D02*
Y371846D01*
X175917Y366933D02*
X178083D01*
X175917Y371067D02*
X178083D01*
X175917Y366933D02*
Y371067D01*
X178083Y366933D02*
Y371067D01*
X275669Y322146D02*
Y327854D01*
X284331Y322146D02*
Y327854D01*
X275669D02*
X284331D01*
X275669Y322146D02*
X284331D01*
X249654Y323130D02*
Y326870D01*
X256346Y323130D02*
Y326870D01*
X249654D02*
X256346D01*
X249654Y323130D02*
X256346D01*
D75*
X208850Y346650D02*
Y350350D01*
X202150D02*
X208850D01*
X202150Y346650D02*
Y350350D01*
Y346650D02*
X208850D01*
X206150Y350350D02*
Y351850D01*
X204850D02*
X206150D01*
X204850Y350350D02*
Y351850D01*
Y350350D02*
X206150D01*
X202882Y345150D02*
Y346650D01*
Y345150D02*
X204182D01*
Y346650D01*
X202882D02*
X204182D01*
X206819Y345150D02*
Y346650D01*
Y345150D02*
X208119D01*
Y346650D01*
X206819D02*
X208119D01*
M02*
