G04*
G04 #@! TF.GenerationSoftware,Altium Limited,Altium Designer,22.8.2 (66)*
G04*
G04 Layer_Color=16711935*
%FSLAX25Y25*%
%MOIN*%
G70*
G04*
G04 #@! TF.SameCoordinates,DBEA32A3-26B1-43DE-8851-A205651FCFC1*
G04*
G04*
G04 #@! TF.FilePolarity,Negative*
G04*
G01*
G75*
%ADD25R,0.02047X0.02047*%
%ADD26R,0.06312X0.05131*%
%ADD38C,0.09800*%
%ADD39C,0.07296*%
%ADD40R,0.07296X0.07296*%
%ADD41C,0.02800*%
%ADD42C,0.14300*%
%ADD66R,0.03543X0.03150*%
%ADD67R,0.01300X0.02800*%
%ADD68R,0.32300X0.18800*%
%ADD69R,0.01883X0.01784*%
%ADD70R,0.01784X0.01883*%
%ADD71R,0.02572X0.02572*%
D25*
X290000Y374075D02*
D03*
Y370925D02*
D03*
D26*
X301000Y367594D02*
D03*
Y373500D02*
D03*
D38*
X154000Y236000D02*
D03*
Y386000D02*
D03*
D39*
X235500Y305000D02*
D03*
X225500D02*
D03*
X215500D02*
D03*
D40*
X245500D02*
D03*
D41*
X209500Y313000D02*
D03*
X279500Y310000D02*
D03*
X180500Y348000D02*
D03*
X284500Y284500D02*
D03*
X204000Y358500D02*
D03*
X176987Y363190D02*
D03*
X233590Y344939D02*
D03*
X313157Y335079D02*
D03*
X282500Y330500D02*
D03*
X285769Y319974D02*
D03*
X249500Y372500D02*
D03*
X237000Y372000D02*
D03*
X225000Y353500D02*
D03*
X273000Y344500D02*
D03*
X285000Y353500D02*
D03*
X272500Y369500D02*
D03*
X271000Y375500D02*
D03*
X276684Y365838D02*
D03*
X282500Y366000D02*
D03*
X267500Y310000D02*
D03*
X249000Y318500D02*
D03*
X267500Y328000D02*
D03*
X262000D02*
D03*
X207500Y338000D02*
D03*
X224000Y360000D02*
D03*
X301500Y359000D02*
D03*
D42*
X314500Y283000D02*
D03*
X320000Y371000D02*
D03*
X188500Y315500D02*
D03*
D66*
X186563Y344760D02*
D03*
Y352240D02*
D03*
X194437Y348500D02*
D03*
D67*
X205500Y351250D02*
D03*
X203532Y345750D02*
D03*
X207469D02*
D03*
D68*
X193000Y262000D02*
D03*
X321000D02*
D03*
D69*
X276498Y369547D02*
D03*
Y371516D02*
D03*
Y373484D02*
D03*
Y375453D02*
D03*
X282502D02*
D03*
Y373484D02*
D03*
Y371516D02*
D03*
Y369547D02*
D03*
D70*
X278515Y375502D02*
D03*
X280484D02*
D03*
Y369498D02*
D03*
X278515D02*
D03*
D71*
X191575Y338000D02*
D03*
X188425D02*
D03*
X204350Y332000D02*
D03*
X207500D02*
D03*
M02*
