G04*
G04 #@! TF.GenerationSoftware,Altium Limited,Altium Designer,22.7.1 (60)*
G04*
G04 Layer_Color=255*
%FSLAX25Y25*%
%MOIN*%
G70*
G04*
G04 #@! TF.SameCoordinates,F12143AB-E3BC-440E-ABAB-C55E8F116B8D*
G04*
G04*
G04 #@! TF.FilePolarity,Positive*
G04*
G01*
G75*
%ADD15R,0.03740X0.03347*%
%ADD16R,0.04331X0.02559*%
G04:AMPARAMS|DCode=17|XSize=61.81mil|YSize=16.14mil|CornerRadius=2.02mil|HoleSize=0mil|Usage=FLASHONLY|Rotation=90.000|XOffset=0mil|YOffset=0mil|HoleType=Round|Shape=RoundedRectangle|*
%AMROUNDEDRECTD17*
21,1,0.06181,0.01211,0,0,90.0*
21,1,0.05778,0.01614,0,0,90.0*
1,1,0.00404,0.00605,0.02889*
1,1,0.00404,0.00605,-0.02889*
1,1,0.00404,-0.00605,-0.02889*
1,1,0.00404,-0.00605,0.02889*
%
%ADD17ROUNDEDRECTD17*%
%ADD18R,0.03740X0.03740*%
%ADD19R,0.04206X0.04750*%
%ADD20R,0.04134X0.04134*%
%ADD21R,0.06299X0.05492*%
%ADD22C,0.04961*%
%ADD23R,0.02047X0.02047*%
%ADD24R,0.05512X0.04331*%
%ADD25R,0.01772X0.01772*%
%ADD26R,0.01860X0.01843*%
%ADD27R,0.02362X0.01968*%
%ADD28R,0.03347X0.02953*%
%ADD29R,0.03773X0.03963*%
%ADD30R,0.02441X0.02598*%
%ADD31R,0.02047X0.02047*%
%ADD32R,0.04331X0.05512*%
%ADD33R,0.07480X0.04331*%
%ADD34R,0.03996X0.10000*%
%ADD35R,0.02756X0.03543*%
%ADD55C,0.09000*%
%ADD56C,0.06496*%
%ADD57R,0.06496X0.06496*%
%ADD58C,0.05118*%
D15*
X289500Y389000D02*
D03*
X232500Y371657D02*
D03*
Y366343D02*
D03*
D16*
X185776Y351240D02*
D03*
Y347500D02*
D03*
Y343760D02*
D03*
X195224D02*
D03*
Y347500D02*
D03*
Y351240D02*
D03*
D17*
X269543Y359799D02*
D03*
X272102D02*
D03*
X274661D02*
D03*
X277220D02*
D03*
X279780D02*
D03*
X282339D02*
D03*
X284898D02*
D03*
X287457D02*
D03*
Y337201D02*
D03*
X284898D02*
D03*
X282339D02*
D03*
X279780D02*
D03*
X277220D02*
D03*
X274661D02*
D03*
X272102D02*
D03*
X269543D02*
D03*
D18*
X261906Y357500D02*
D03*
X256000D02*
D03*
X261906Y349000D02*
D03*
X256000D02*
D03*
D19*
X315500Y301751D02*
D03*
Y295249D02*
D03*
D20*
X307843Y341500D02*
D03*
X313157D02*
D03*
X308000Y328500D02*
D03*
X313315D02*
D03*
D21*
X266945Y302348D02*
D03*
Y284652D02*
D03*
X300055D02*
D03*
Y302348D02*
D03*
D22*
X299793Y293500D02*
D03*
D23*
X252500Y367425D02*
D03*
Y370575D02*
D03*
D24*
X242500Y366547D02*
D03*
Y372453D02*
D03*
D25*
X224500Y369575D02*
D03*
Y366425D02*
D03*
D26*
X204000Y351917D02*
D03*
Y355083D02*
D03*
D27*
X217335Y325500D02*
D03*
X221665D02*
D03*
X229835Y347500D02*
D03*
X234165D02*
D03*
D28*
X196000Y366039D02*
D03*
Y370961D02*
D03*
D29*
X186500Y369358D02*
D03*
Y363642D02*
D03*
D30*
X177000Y367268D02*
D03*
Y370732D02*
D03*
D31*
X281575Y317500D02*
D03*
X278425D02*
D03*
D32*
X277047Y325000D02*
D03*
X282953D02*
D03*
D33*
X296500Y339921D02*
D03*
Y330079D02*
D03*
D34*
X215498Y369000D02*
D03*
X206502D02*
D03*
D35*
X250047Y325000D02*
D03*
X255953D02*
D03*
D55*
X154000Y236000D02*
D03*
Y386000D02*
D03*
D56*
X235500Y305000D02*
D03*
X225500D02*
D03*
X215500D02*
D03*
D57*
X245500D02*
D03*
D58*
X217500Y347602D02*
D03*
Y335398D02*
D03*
M02*
